<svg width="176" height="64" viewBox="0 0 176 64" fill="none" xmlns="http://www.w3.org/2000/svg">
<path d="M2.29785 16.3096H6.74707V32.0312C6.74707 33.3483 7.01823 34.2669 7.56055 34.7871C8.11393 35.3073 9.13216 35.5674 10.6152 35.5674V40C7.94792 40 5.89486 39.3359 4.45605 38.0078C3.01725 36.6686 2.29785 34.7041 2.29785 32.1143V16.3096ZM10.6152 35.5674C11.1022 35.5674 11.556 35.4788 11.9766 35.3018C12.3971 35.1247 12.7513 34.9199 13.0391 34.6875C13.3268 34.444 13.6257 34.0954 13.9355 33.6416C14.2454 33.1878 14.4889 32.8005 14.666 32.4795C14.8431 32.1585 15.0755 31.7048 15.3633 31.1182C15.6178 30.6201 15.8171 30.2327 15.9609 29.9561C16.1048 29.6794 16.3096 29.3252 16.5752 28.8936C16.8408 28.4508 17.0788 28.1077 17.2891 27.8643C17.5104 27.6097 17.7816 27.3275 18.1025 27.0176C18.4346 26.7077 18.7611 26.4753 19.082 26.3203C19.4141 26.1543 19.8014 26.016 20.2441 25.9053C20.6868 25.7946 21.1517 25.7393 21.6387 25.7393C22.8783 25.7393 24.0016 26.1156 25.0088 26.8682C26.016 27.6208 26.7852 28.5892 27.3164 29.7734C27.8477 30.9577 28.1133 32.2194 28.1133 33.5586C28.1133 35.584 27.5654 37.1943 26.4697 38.3896C25.374 39.5739 23.8577 40.166 21.9209 40.166C20.7588 40.166 19.6465 39.917 18.584 39.4189C17.5215 38.9098 16.6582 38.2292 15.9941 37.377C15.3079 38.2292 14.5387 38.8822 13.6865 39.3359C12.8343 39.7786 11.8105 40 10.6152 40C10.3939 40 10.2334 39.8451 10.1338 39.5352C10.0342 39.2142 9.98438 38.6331 9.98438 37.792C9.98438 36.9508 10.0342 36.3698 10.1338 36.0488C10.2334 35.7279 10.3939 35.5674 10.6152 35.5674ZM18.252 33.9736C19.403 35.1579 20.6315 35.75 21.9375 35.75C22.5352 35.75 23.0443 35.5618 23.4648 35.1855C23.8854 34.7982 24.0957 34.2559 24.0957 33.5586C24.0957 32.6289 23.8411 31.821 23.332 31.1348C22.8229 30.4486 22.2419 30.1055 21.5889 30.1055C20.9801 30.1055 20.4378 30.3434 19.9619 30.8193C19.4971 31.2952 19.0378 32.0811 18.584 33.1768L18.252 33.9736ZM64.0225 25.8887C64.598 28.0911 64.8857 29.9671 64.8857 31.5166C64.8857 34.6156 63.8454 36.807 61.7646 38.0908C59.6839 39.3636 56.1644 40 51.2061 40C49.2028 40 47.4652 39.9059 45.9932 39.7178C44.5212 39.5186 43.2373 39.2142 42.1416 38.8047C41.057 38.3952 40.1826 37.8584 39.5186 37.1943C38.8545 36.5192 38.362 35.7223 38.041 34.8037C37.7201 33.874 37.5596 32.7783 37.5596 31.5166C37.5596 29.9671 37.8473 28.0911 38.4229 25.8887L42.374 26.7686C41.9756 28.5394 41.7764 29.9671 41.7764 31.0518C41.7764 31.8044 41.8704 32.4352 42.0586 32.9443C42.2578 33.4535 42.5622 33.8851 42.9717 34.2393C43.3923 34.5934 43.9844 34.8646 44.748 35.0527C45.5228 35.2409 46.4082 35.3737 47.4043 35.4512C48.4115 35.5286 49.6787 35.5674 51.2061 35.5674C52.7334 35.5674 54.0007 35.5286 55.0078 35.4512C56.015 35.3737 56.9004 35.2409 57.6641 35.0527C58.4388 34.8646 59.0309 34.5934 59.4404 34.2393C59.8499 33.8851 60.1543 33.4535 60.3535 32.9443C60.5527 32.4352 60.6523 31.8044 60.6523 31.0518C60.6523 29.9118 60.4587 28.484 60.0713 26.7686L64.0225 25.8887ZM51.1729 25.2744L54.1113 22.3359L57.0332 25.2744L54.1113 28.1797L51.1729 25.2744ZM45.3623 25.2744L48.3008 22.3359L51.2227 25.2744L48.3008 28.1797L45.3623 25.2744ZM68.2559 17.5215L72.3896 15.9443C74.6032 21.2015 75.8704 26.5251 76.1914 31.915L71.8916 32.4795C71.7477 30.0889 71.3548 27.5876 70.7129 24.9756C70.071 22.3636 69.252 19.8789 68.2559 17.5215ZM81.8359 16.3096H86.252V26.4531C86.252 28.3014 86.1468 29.9007 85.9365 31.251C85.7373 32.5902 85.3942 33.7744 84.9072 34.8037C84.4202 35.8219 83.8171 36.6576 83.0977 37.3105C82.3783 37.9635 81.443 38.4948 80.292 38.9043C79.152 39.3138 77.8792 39.6016 76.4736 39.7676C75.0791 39.9225 73.4134 40 71.4766 40H67.874V35.5674H71.7754C72.6497 35.5674 73.3968 35.5618 74.0166 35.5508C74.6475 35.5286 75.2783 35.4899 75.9092 35.4346C76.54 35.3682 77.0713 35.2907 77.5029 35.2021C77.9346 35.1025 78.3607 34.9697 78.7812 34.8037C79.2129 34.6377 79.5615 34.444 79.8271 34.2227C80.0928 33.9902 80.3529 33.7135 80.6074 33.3926C80.862 33.0605 81.0557 32.6953 81.1885 32.2969C81.3213 31.8874 81.443 31.417 81.5537 30.8857C81.6644 30.3434 81.7363 29.7568 81.7695 29.126C81.8138 28.4951 81.8359 27.7757 81.8359 26.9678V16.3096ZM99.4004 35.5342C99.0905 31.8376 98.1276 29.9893 96.5117 29.9893C95.737 29.9893 95.1449 30.349 94.7354 31.0684C94.3258 31.7878 94.1211 32.6676 94.1211 33.708C94.1211 34.3831 94.3203 34.8646 94.7188 35.1523C95.1283 35.429 95.7702 35.5674 96.6445 35.5674C97.9284 35.5674 98.847 35.5563 99.4004 35.5342ZM98.8525 40H96.0967C94.2373 40 92.793 39.502 91.7637 38.5059C90.7344 37.4987 90.2197 36.0322 90.2197 34.1064C90.2197 33.3096 90.2972 32.5182 90.4521 31.7324C90.6182 30.9466 90.8672 30.194 91.1992 29.4746C91.5423 28.7441 91.9574 28.1022 92.4443 27.5488C92.9313 26.9844 93.5345 26.5361 94.2539 26.2041C94.9733 25.8721 95.7536 25.7061 96.5947 25.7061C97.5355 25.7061 98.3822 25.8887 99.1348 26.2539C99.8984 26.6081 100.524 27.0895 101.011 27.6982C101.509 28.2959 101.929 29.0319 102.272 29.9062C102.627 30.7695 102.892 31.6605 103.069 32.5791C103.246 33.4867 103.368 34.4827 103.435 35.5674H104.862V40H103.269C102.87 42.2467 101.697 44.167 99.749 45.7607C97.8011 47.3545 95.0785 48.6826 91.5811 49.7451L89.7217 45.7275C94.8903 44.2223 97.9339 42.3132 98.8525 40ZM109.544 28.4785H113.977V31.5C113.999 32.1198 114.082 32.568 114.226 32.8447C114.381 33.1214 114.613 33.3594 114.923 33.5586C116.351 31.0241 117.922 29.0928 119.638 27.7646C121.353 26.4255 123.141 25.7559 125 25.7559C127.014 25.7559 128.63 26.4089 129.848 27.7148C131.065 29.0098 131.674 30.6423 131.674 32.6123C131.674 33.5088 131.475 34.3278 131.076 35.0693C131.74 35.4014 132.626 35.5674 133.732 35.5674V40C131.508 40 129.881 39.4079 128.852 38.2236C127.07 39.4079 124.447 40 120.982 40C118.747 40 116.826 39.7233 115.222 39.1699C113.628 38.6055 112.466 37.8086 111.735 36.7793C111.359 37.7643 110.59 38.5501 109.428 39.1367C108.266 39.7122 106.971 40 105.543 40H104.846C104.624 40 104.464 39.8451 104.364 39.5352C104.265 39.2142 104.215 38.6331 104.215 37.792C104.215 36.9508 104.265 36.3698 104.364 36.0488C104.464 35.7279 104.624 35.5674 104.846 35.5674H105.543C106.406 35.5674 107.098 35.501 107.618 35.3682C108.138 35.2243 108.542 34.9697 108.83 34.6045C109.118 34.2393 109.306 33.8076 109.395 33.3096C109.494 32.8115 109.544 32.1419 109.544 31.3008V28.4785ZM124.22 30.1055C122.272 30.1055 120.147 31.749 117.845 35.0361C118.675 35.3903 119.865 35.5674 121.414 35.5674C122.443 35.5674 123.34 35.4844 124.104 35.3184C124.878 35.1413 125.526 34.8203 126.046 34.3555C126.566 33.8906 126.826 33.293 126.826 32.5625C126.826 31.8431 126.588 31.2565 126.112 30.8027C125.636 30.3379 125.006 30.1055 124.22 30.1055ZM141.651 24.2451C142.404 24.2451 143.19 24.3835 144.009 24.6602C144.828 24.9368 145.896 25.3685 147.213 25.9551C148.198 26.3867 148.978 26.7243 149.554 26.9678C150.129 27.2002 150.926 27.4824 151.944 27.8145C152.963 28.1465 153.942 28.4066 154.883 28.5947V32.2139L152.343 33.9072C152.808 34.5492 153.317 34.9863 153.87 35.2188C154.435 35.4512 155.259 35.5674 156.344 35.5674H156.941V40H156.311C154.628 40 153.223 39.6735 152.094 39.0205C150.965 38.3564 150.09 37.2884 149.471 35.8164L147.595 37.0781C146.056 38.1074 144.463 38.8545 142.813 39.3193C141.175 39.7731 139.36 40 137.368 40H133.732C133.511 40 133.351 39.8451 133.251 39.5352C133.151 39.2142 133.102 38.6331 133.102 37.792C133.102 36.9508 133.151 36.3698 133.251 36.0488C133.351 35.7279 133.511 35.5674 133.732 35.5674H138.182C139.687 35.5674 141.009 35.429 142.149 35.1523C143.3 34.8646 144.468 34.361 145.652 33.6416L149.67 31.1514C148.364 30.8857 146.814 30.3656 145.021 29.5908C144.501 29.3584 144.108 29.1924 143.843 29.0928C143.577 28.9821 143.251 28.877 142.863 28.7773C142.487 28.6777 142.144 28.6279 141.834 28.6279C140.406 28.6279 139.477 29.6351 139.045 31.6494L138.912 32.2803L135.426 31.6494L135.559 30.8691C135.957 28.7109 136.632 27.0674 137.584 25.9385C138.547 24.8096 139.903 24.2451 141.651 24.2451ZM156.941 35.5674C157.428 35.5674 157.882 35.4788 158.303 35.3018C158.723 35.1247 159.077 34.9199 159.365 34.6875C159.653 34.444 159.952 34.0954 160.262 33.6416C160.572 33.1878 160.815 32.8005 160.992 32.4795C161.169 32.1585 161.402 31.7048 161.689 31.1182C161.944 30.6201 162.143 30.2327 162.287 29.9561C162.431 29.6794 162.636 29.3252 162.901 28.8936C163.167 28.4508 163.405 28.1077 163.615 27.8643C163.837 27.6097 164.108 27.3275 164.429 27.0176C164.761 26.7077 165.087 26.4753 165.408 26.3203C165.74 26.1543 166.128 26.016 166.57 25.9053C167.013 25.7946 167.478 25.7393 167.965 25.7393C169.204 25.7393 170.328 26.1156 171.335 26.8682C172.342 27.6208 173.111 28.5892 173.643 29.7734C174.174 30.9577 174.439 32.2194 174.439 33.5586C174.439 35.584 173.892 37.1943 172.796 38.3896C171.7 39.5739 170.184 40.166 168.247 40.166C167.085 40.166 165.973 39.917 164.91 39.4189C163.848 38.9098 162.984 38.2292 162.32 37.377C161.634 38.2292 160.865 38.8822 160.013 39.3359C159.16 39.7786 158.137 40 156.941 40C156.72 40 156.56 39.8451 156.46 39.5352C156.36 39.2142 156.311 38.6331 156.311 37.792C156.311 36.9508 156.36 36.3698 156.46 36.0488C156.56 35.7279 156.72 35.5674 156.941 35.5674ZM164.578 33.9736C165.729 35.1579 166.958 35.75 168.264 35.75C168.861 35.75 169.37 35.5618 169.791 35.1855C170.212 34.7982 170.422 34.2559 170.422 33.5586C170.422 32.6289 170.167 31.821 169.658 31.1348C169.149 30.4486 168.568 30.1055 167.915 30.1055C167.306 30.1055 166.764 30.3434 166.288 30.8193C165.823 31.2952 165.364 32.0811 164.91 33.1768L164.578 33.9736Z" fill="#59518C"/>
<path d="M26.0522 9.08043C33.1313 -3.18276 56.4459 -2.99168 78.2621 9.4525C59.1381 0.428309 39.9917 1.23351 33.7865 11.9818C26.9682 23.7932 38.36 43.1383 59.2309 55.1898C67.7071 60.0842 76.443 63.0234 84.2865 63.9964C74.8559 63.801 63.6606 60.5746 52.8588 54.3373C30.9338 41.6771 18.932 21.4151 26.0522 9.08043Z" fill="#CAACF2"/>
</svg>
