<svg width="212" height="77" viewBox="0 0 212 77" fill="none" xmlns="http://www.w3.org/2000/svg">
<path d="M3.15039 20.3418H8.9082V40.6875C8.9082 42.3919 9.25911 43.5807 9.96094 44.2539C10.6771 44.9271 11.9948 45.2637 13.9141 45.2637V51C10.4622 51 7.80534 50.1406 5.94336 48.4219C4.08138 46.6888 3.15039 44.1465 3.15039 40.7949V20.3418ZM13.9141 45.2637C14.5443 45.2637 15.1315 45.1491 15.6758 44.9199C16.2201 44.6908 16.6784 44.4258 17.0508 44.125C17.4232 43.8099 17.8099 43.3587 18.2109 42.7715C18.612 42.1842 18.9271 41.6829 19.1562 41.2676C19.3854 40.8522 19.6862 40.265 20.0586 39.5059C20.388 38.8613 20.6458 38.36 20.832 38.002C21.0182 37.6439 21.2832 37.1855 21.627 36.627C21.9707 36.054 22.2786 35.61 22.5508 35.2949C22.8372 34.9655 23.1882 34.6003 23.6035 34.1992C24.0332 33.7982 24.4557 33.4974 24.8711 33.2969C25.3008 33.082 25.8021 32.903 26.375 32.7598C26.9479 32.6165 27.5495 32.5449 28.1797 32.5449C29.7839 32.5449 31.2376 33.0319 32.541 34.0059C33.8444 34.9798 34.8398 36.2331 35.5273 37.7656C36.2148 39.2982 36.5586 40.931 36.5586 42.6641C36.5586 45.2852 35.8496 47.3691 34.4316 48.916C33.0137 50.4486 31.0514 51.2148 28.5449 51.2148C27.041 51.2148 25.6016 50.8926 24.2266 50.248C22.8516 49.5892 21.7344 48.7083 20.875 47.6055C19.987 48.7083 18.9915 49.5534 17.8887 50.1406C16.7858 50.7135 15.4609 51 13.9141 51C13.6276 51 13.4199 50.7995 13.291 50.3984C13.1621 49.9831 13.0977 49.2311 13.0977 48.1426C13.0977 47.054 13.1621 46.3021 13.291 45.8867C13.4199 45.4714 13.6276 45.2637 13.9141 45.2637ZM23.7969 43.2012C25.2865 44.7337 26.8763 45.5 28.5664 45.5C29.3398 45.5 29.9987 45.2565 30.543 44.7695C31.0872 44.2682 31.3594 43.5664 31.3594 42.6641C31.3594 41.4609 31.0299 40.4154 30.3711 39.5273C29.7122 38.6393 28.9603 38.1953 28.1152 38.1953C27.3275 38.1953 26.6257 38.5033 26.0098 39.1191C25.4082 39.735 24.8138 40.752 24.2266 42.1699L23.7969 43.2012ZM78.2598 32.8457L76.5195 38.002C75.1875 37.5007 73.7552 37.25 72.2227 37.25C70.375 37.25 68.8568 37.7298 67.668 38.6895C66.4935 39.6348 65.9062 40.9167 65.9062 42.5352C65.9062 43.5234 66.293 44.2109 67.0664 44.5977C67.8542 44.9701 69.2793 45.2207 71.3418 45.3496C72.3444 45.4069 73.2038 45.5 73.9199 45.6289C74.6504 45.7435 75.3737 45.9512 76.0898 46.252C76.8203 46.5384 77.4076 46.9108 77.8516 47.3691C78.2956 47.8132 78.6536 48.4147 78.9258 49.1738C79.1979 49.9186 79.334 50.8066 79.334 51.8379C79.334 53.7428 78.9186 55.4115 78.0879 56.8438C77.2572 58.276 76.1042 59.4147 74.6289 60.2598C73.1536 61.1048 71.485 61.735 69.623 62.1504C67.7611 62.5658 65.7129 62.7734 63.4785 62.7734C58.6087 62.7734 54.985 61.6992 52.6074 59.5508C50.2298 57.4167 49.041 54.0508 49.041 49.4531C49.041 46.7318 49.3633 43.8171 50.0078 40.709L55.3574 41.6973C54.8132 44.834 54.541 47.4622 54.541 49.582C54.541 52.375 55.2357 54.3158 56.625 55.4043C58.0143 56.4928 60.3203 57.0371 63.543 57.0371C64.7604 57.0371 65.9635 56.9512 67.1523 56.7793C68.3411 56.6074 69.444 56.3568 70.4609 56.0273C71.4779 55.6979 72.3014 55.2611 72.9316 54.7168C73.5618 54.1725 73.877 53.571 73.877 52.9121C73.877 52.2389 73.6191 51.7734 73.1035 51.5156C72.5879 51.2578 71.5781 51.0716 70.0742 50.957C68.3698 50.8424 66.9375 50.6419 65.7773 50.3555C64.6172 50.0547 63.6146 49.6178 62.7695 49.0449C61.9388 48.4577 61.3301 47.6986 60.9434 46.7676C60.5566 45.8366 60.3633 44.6979 60.3633 43.3516C60.3633 41.1458 60.8288 39.1549 61.7598 37.3789C62.7051 35.6029 64.0514 34.1992 65.7988 33.168C67.5605 32.1224 69.5729 31.5996 71.8359 31.5996C74.1276 31.5996 76.2689 32.015 78.2598 32.8457ZM83.8027 20.3418H89.5605V40.6875C89.5605 42.3919 89.9115 43.5807 90.6133 44.2539C91.3294 44.9271 92.6471 45.2637 94.5664 45.2637V51C91.1146 51 88.4577 50.1406 86.5957 48.4219C84.7337 46.6888 83.8027 44.1465 83.8027 40.7949V20.3418ZM94.5664 45.2637H96.1133C97.5026 45.2637 98.6986 45.1133 99.7012 44.8125C97.7962 42.9076 96.8438 41.0312 96.8438 39.1836C96.8438 37.8659 97.1517 36.6055 97.7676 35.4023C98.3978 34.1992 99.2715 33.2109 100.389 32.4375L97.7031 31.2773L99.9375 25.9922L112.312 31.2988C116.266 33.0176 119.102 34.7721 120.82 36.5625C122.553 38.3529 123.42 40.5228 123.42 43.0723C123.42 45.4355 122.611 47.3906 120.992 48.9375C119.388 50.4701 117.182 51.2363 114.375 51.2363C111.439 51.2363 108.388 50.4701 105.223 48.9375C102.659 50.3125 99.7441 51 96.4785 51H94.5664C94.2799 51 94.0723 50.7923 93.9434 50.377C93.8145 49.9616 93.75 49.2168 93.75 48.1426C93.75 47.0684 93.8145 46.3236 93.9434 45.9082C94.0723 45.4785 94.2799 45.2637 94.5664 45.2637ZM105.33 43.5879C107.607 42.4707 108.746 40.931 108.746 38.9688C108.746 37.8372 108.481 36.9277 107.951 36.2402C107.436 35.5527 106.662 35.209 105.631 35.209C104.628 35.209 103.798 35.6172 103.139 36.4336C102.494 37.2357 102.172 38.1882 102.172 39.291C102.172 40.9525 103.225 42.3848 105.33 43.5879ZM110.4 44.791C111.804 45.2493 113.165 45.4785 114.482 45.4785C116.731 45.4785 117.855 44.569 117.855 42.75C117.855 41.7617 117.462 40.8665 116.674 40.0645C115.9 39.248 114.64 38.4674 112.893 37.7227C113.279 39.112 113.236 40.4297 112.764 41.6758C112.291 42.9219 111.503 43.9603 110.4 44.791ZM143.529 45.4785C144.532 45.4785 145.298 45.235 145.828 44.748C146.372 44.2467 146.645 43.5736 146.645 42.7285C146.645 41.8118 146.38 40.8307 145.85 39.7852C145.32 38.7396 144.546 37.7513 143.529 36.8203C142.512 37.7513 141.732 38.7467 141.188 39.8066C140.643 40.8522 140.371 41.8262 140.371 42.7285C140.371 43.5736 140.636 44.2467 141.166 44.748C141.71 45.235 142.498 45.4785 143.529 45.4785ZM143.529 51.2363C141.008 51.2363 138.996 50.5345 137.492 49.1309C135.988 47.7129 135.236 45.9583 135.236 43.8672C135.236 40.2721 136.948 36.7988 140.371 33.4473C139.598 32.7311 138.867 32.0723 138.18 31.4707L141.617 27.3672C148.564 32.9818 152.037 38.3242 152.037 43.3945C152.037 45.6146 151.235 47.4766 149.631 48.9805C148.027 50.4844 145.993 51.2363 143.529 51.2363ZM158.977 37.0566L164.434 35.209C166.081 40.5085 166.904 44.6908 166.904 47.7559C166.904 51.4655 165.801 54.5951 163.596 57.1445C161.39 59.694 157.838 61.8711 152.939 63.6758L150.469 58.5195C154.365 57.1159 157.122 55.612 158.74 54.0078C160.359 52.4036 161.168 50.334 161.168 47.7988C161.168 45.1348 160.438 41.554 158.977 37.0566ZM182.137 50.8066C180.676 51.0072 179.494 51.1074 178.592 51.1074C176.186 51.1074 174.316 50.4629 172.984 49.1738C171.652 47.8704 170.986 45.9727 170.986 43.4805C170.986 42.4349 171.087 41.4036 171.287 40.3867C171.502 39.3698 171.824 38.3887 172.254 37.4434C172.698 36.498 173.235 35.6673 173.865 34.9512C174.495 34.2207 175.276 33.6406 176.207 33.2109C177.138 32.7669 178.148 32.5449 179.236 32.5449C180.396 32.5449 181.442 32.7454 182.373 33.1465C183.304 33.5332 184.092 34.0918 184.736 34.8223C185.381 35.5527 185.932 36.3906 186.391 37.3359C186.863 38.2812 187.229 39.3555 187.486 40.5586C187.744 41.7617 187.93 42.972 188.045 44.1895C188.16 45.4069 188.217 46.7174 188.217 48.1211C188.217 51.8594 186.935 54.9746 184.371 57.4668C181.822 59.9733 177.947 62.0286 172.748 63.6328L170.342 58.4336C173.607 57.5026 176.25 56.3854 178.27 55.082C180.303 53.793 181.592 52.3678 182.137 50.8066ZM182.846 44.9844C182.459 40.3581 181.22 38.0449 179.129 38.0449C178.126 38.0449 177.36 38.5247 176.83 39.4844C176.3 40.444 176.035 41.6042 176.035 42.9648C176.035 43.8385 176.293 44.4616 176.809 44.834C177.324 45.1921 178.155 45.3711 179.301 45.3711C180.432 45.3711 181.614 45.2422 182.846 44.9844ZM210.41 42.2344C210.41 43.4948 210.181 44.6335 209.723 45.6504C209.279 46.6673 208.67 47.5124 207.896 48.1855C207.137 48.8587 206.242 49.4245 205.211 49.8828C204.18 50.3268 203.105 50.6491 201.988 50.8496C200.871 51.0501 199.711 51.1504 198.508 51.1504C196.001 51.1504 193.574 50.821 191.225 50.1621L192.492 44.7266C194.44 45.2135 196.388 45.457 198.336 45.457C200.255 45.457 201.802 45.1706 202.977 44.5977C204.165 44.0104 204.76 43.0794 204.76 41.8047C204.76 40.6302 204.137 39.1621 202.891 37.4004C201.645 35.6387 199.868 33.748 197.562 31.7285L201.258 27.3457C204.18 29.8952 206.436 32.3802 208.025 34.8008C209.615 37.207 210.41 39.6849 210.41 42.2344Z" fill="#191627"/>
<path d="M13.0528 22.081C20.1323 9.81764 43.447 10.0098 65.2638 22.4551C46.139 13.4299 26.9915 14.2337 20.7862 24.9824C13.9678 36.7938 25.3596 56.1389 46.2306 68.1904C54.7071 73.085 63.4434 76.024 71.2872 76.9971C61.8564 76.8018 50.6605 73.5753 39.8585 67.3379C17.9336 54.6776 5.93246 34.4156 13.0528 22.081Z" fill="#CAACF2"/>
</svg>
