<svg width="172" height="73" viewBox="0 0 172 73" fill="none" xmlns="http://www.w3.org/2000/svg">
<path d="M29.1074 20.3418H34.8652V40.6875C34.8652 42.3919 35.2161 43.5807 35.918 44.2539C36.6341 44.9271 37.9518 45.2637 39.8711 45.2637V51C36.4193 51 33.7624 50.1406 31.9004 48.4219C30.0384 46.6888 29.1074 44.1465 29.1074 40.7949V20.3418ZM39.8711 45.2637C40.5013 45.2637 41.0885 45.1491 41.6328 44.9199C42.1771 44.6908 42.6354 44.4258 43.0078 44.125C43.3802 43.8099 43.7669 43.3587 44.168 42.7715C44.569 42.1842 44.8841 41.6829 45.1133 41.2676C45.3424 40.8522 45.6432 40.265 46.0156 39.5059C46.3451 38.8613 46.6029 38.36 46.7891 38.002C46.9753 37.6439 47.2402 37.1855 47.584 36.627C47.9277 36.054 48.2357 35.61 48.5078 35.2949C48.7943 34.9655 49.1452 34.6003 49.5605 34.1992C49.9902 33.7982 50.4128 33.4974 50.8281 33.2969C51.2578 33.082 51.7591 32.903 52.332 32.7598C52.9049 32.6165 53.5065 32.5449 54.1367 32.5449C55.7409 32.5449 57.1947 33.0319 58.498 34.0059C59.8014 34.9798 60.7969 36.2331 61.4844 37.7656C62.1719 39.2982 62.5156 40.931 62.5156 42.6641C62.5156 45.2852 61.8066 47.3691 60.3887 48.916C58.9707 50.4486 57.0085 51.2148 54.502 51.2148C52.998 51.2148 51.5586 50.8926 50.1836 50.248C48.8086 49.5892 47.6914 48.7083 46.832 47.6055C45.944 48.7083 44.9486 49.5534 43.8457 50.1406C42.7428 50.7135 41.418 51 39.8711 51C39.5846 51 39.377 50.7995 39.248 50.3984C39.1191 49.9831 39.0547 49.2311 39.0547 48.1426C39.0547 47.054 39.1191 46.3021 39.248 45.8867C39.377 45.4714 39.5846 45.2637 39.8711 45.2637ZM49.7539 43.2012C51.2435 44.7337 52.8333 45.5 54.5234 45.5C55.2969 45.5 55.9557 45.2565 56.5 44.7695C57.0443 44.2682 57.3164 43.5664 57.3164 42.6641C57.3164 41.4609 56.987 40.4154 56.3281 39.5273C55.6693 38.6393 54.9173 38.1953 54.0723 38.1953C53.2845 38.1953 52.5827 38.5033 51.9668 39.1191C51.3652 39.735 50.7708 40.752 50.1836 42.1699L49.7539 43.2012ZM83.0332 45.4785C84.0358 45.4785 84.8021 45.235 85.332 44.748C85.8763 44.2467 86.1484 43.5736 86.1484 42.7285C86.1484 41.8118 85.8835 40.8307 85.3535 39.7852C84.8236 38.7396 84.0501 37.7513 83.0332 36.8203C82.0163 37.7513 81.2357 38.7467 80.6914 39.8066C80.1471 40.8522 79.875 41.8262 79.875 42.7285C79.875 43.5736 80.14 44.2467 80.6699 44.748C81.2142 45.235 82.002 45.4785 83.0332 45.4785ZM83.0332 51.2363C80.5124 51.2363 78.5 50.5345 76.9961 49.1309C75.4922 47.7129 74.7402 45.9583 74.7402 43.8672C74.7402 40.2721 76.4518 36.7988 79.875 33.4473C79.1016 32.7311 78.3711 32.0723 77.6836 31.4707L81.1211 27.3672C88.0677 32.9818 91.541 38.3242 91.541 43.3945C91.541 45.6146 90.7389 47.4766 89.1348 48.9805C87.5306 50.4844 85.4967 51.2363 83.0332 51.2363ZM98.4805 37.0566L103.938 35.209C105.585 40.5085 106.408 44.6908 106.408 47.7559C106.408 51.4655 105.305 54.5951 103.1 57.1445C100.894 59.694 97.3418 61.8711 92.4434 63.6758L89.9727 58.5195C93.8685 57.1159 96.6257 55.612 98.2441 54.0078C99.8626 52.4036 100.672 50.334 100.672 47.7988C100.672 45.1348 99.9414 41.554 98.4805 37.0566ZM111.092 20.3418H116.85V40.6875C116.85 42.3919 117.201 43.5807 117.902 44.2539C118.618 44.9271 119.936 45.2637 121.855 45.2637V51C118.404 51 115.747 50.1406 113.885 48.4219C112.023 46.6888 111.092 44.1465 111.092 40.7949V20.3418ZM131.803 32.3945C132.705 36.1185 133.156 39.1263 133.156 41.418C133.156 44.4544 132.318 46.8105 130.643 48.4863C128.967 50.1621 126.339 51 122.758 51H121.855C121.569 51 121.361 50.7995 121.232 50.3984C121.104 49.9831 121.039 49.2311 121.039 48.1426C121.039 47.054 121.104 46.3021 121.232 45.8867C121.361 45.4714 121.569 45.2637 121.855 45.2637H122.758C124.434 45.2637 125.651 44.8984 126.41 44.168C127.169 43.4375 127.549 42.3132 127.549 40.7949C127.549 39.4342 127.169 37.1283 126.41 33.877L131.803 32.3945ZM121.104 58.4551L124.906 54.6523L128.688 58.4551L124.906 62.2148L121.104 58.4551ZM140.074 37.0566L145.531 35.209C147.178 40.5085 148.002 44.6908 148.002 47.7559C148.002 51.4655 146.899 54.5951 144.693 57.1445C142.488 59.694 138.936 61.8711 134.037 63.6758L131.566 58.5195C135.462 57.1159 138.219 55.612 139.838 54.0078C141.456 52.4036 142.266 50.334 142.266 47.7988C142.266 45.1348 141.535 41.554 140.074 37.0566ZM170.41 42.2344C170.41 43.4948 170.181 44.6335 169.723 45.6504C169.279 46.6673 168.67 47.5124 167.896 48.1855C167.137 48.8587 166.242 49.4245 165.211 49.8828C164.18 50.3268 163.105 50.6491 161.988 50.8496C160.871 51.0501 159.711 51.1504 158.508 51.1504C156.001 51.1504 153.574 50.821 151.225 50.1621L152.492 44.7266C154.44 45.2135 156.388 45.457 158.336 45.457C160.255 45.457 161.802 45.1706 162.977 44.5977C164.165 44.0104 164.76 43.0794 164.76 41.8047C164.76 40.6302 164.137 39.1621 162.891 37.4004C161.645 35.6387 159.868 33.748 157.562 31.7285L161.258 27.3457C164.18 29.8952 166.436 32.3802 168.025 34.8008C169.615 37.207 170.41 39.6849 170.41 42.2344Z" fill="#111111"/>
<path d="M39.0523 18.081C46.1318 5.81764 69.4465 6.00983 91.2633 18.4551C72.1385 9.42987 52.991 10.2337 46.7857 20.9824C39.9674 32.7938 51.3592 52.1389 72.2301 64.1904C80.7066 69.085 89.4429 72.024 97.2867 72.9971C87.8559 72.8018 76.6601 69.5753 65.858 63.3379C43.9331 50.6776 31.932 30.4156 39.0523 18.081Z" fill="#CAACF2"/>
</svg>
