<svg width="307" height="77" viewBox="0 0 307 77" fill="none" xmlns="http://www.w3.org/2000/svg">
<path d="M14.6836 30.9336L14.4258 27.2383L20.1621 26.8945L20.957 40.7734C21.0573 42.3919 21.4655 43.5449 22.1816 44.2324C22.9121 44.9199 24.2083 45.2637 26.0703 45.2637H26.1133V51H26.0703C23.6927 51 21.7663 50.6992 20.291 50.0977C18.8301 49.4961 17.7057 48.5723 16.918 47.3262C15.4427 47.8561 13.9245 48.1211 12.3633 48.1211C10.7018 48.1211 9.20508 47.8919 7.87305 47.4336C6.55534 46.9753 5.4668 46.2233 4.60742 45.1777C3.76237 44.1322 3.33984 42.8646 3.33984 41.375C3.33984 39.957 3.6263 38.6536 4.19922 37.4648C4.78646 36.2617 5.5957 35.2305 6.62695 34.3711C7.67253 33.5117 8.86849 32.7956 10.2148 32.2227C11.5755 31.6497 13.0651 31.2201 14.6836 30.9336ZM15.0488 36.1758C12.9147 36.3477 11.3105 36.8418 10.2363 37.6582C9.17643 38.4603 8.64648 39.377 8.64648 40.4082C8.64648 41.153 8.9974 41.7546 9.69922 42.2129C10.4154 42.6712 11.4538 42.9004 12.8145 42.9004C13.8171 42.9004 14.7409 42.7858 15.5859 42.5566C15.457 42.0267 15.3783 41.5326 15.3496 41.0742L15.0488 36.1758ZM36.0605 32.3945C36.9629 36.1185 37.4141 39.1263 37.4141 41.418C37.4141 44.4544 36.5762 46.8105 34.9004 48.4863C33.2246 50.1621 30.5964 51 27.0156 51H26.1133C25.8268 51 25.6191 50.7995 25.4902 50.3984C25.3613 49.9831 25.2969 49.2311 25.2969 48.1426C25.2969 47.054 25.3613 46.3021 25.4902 45.8867C25.6191 45.4714 25.8268 45.2637 26.1133 45.2637H27.0156C28.6914 45.2637 29.9089 44.8984 30.668 44.168C31.4271 43.4375 31.8066 42.3132 31.8066 40.7949C31.8066 39.4342 31.4271 37.1283 30.668 33.877L36.0605 32.3945ZM25.3613 58.4551L29.1641 54.6523L32.9453 58.4551L29.1641 62.2148L25.3613 58.4551ZM41.8613 20.3418H47.6191V40.6875C47.6191 42.3919 47.9701 43.5807 48.6719 44.2539C49.388 44.9271 50.7057 45.2637 52.625 45.2637V51C49.1732 51 46.5163 50.1406 44.6543 48.4219C42.7923 46.6888 41.8613 44.1465 41.8613 40.7949V20.3418ZM65.3867 28.8926L69.1895 25.0898L72.9707 28.8926L69.1895 32.6523L65.3867 28.8926ZM72.9062 28.8926L76.709 25.0898L80.4902 28.8926L76.709 32.6523L72.9062 28.8926ZM69.1465 21.9316L72.9492 18.1289L76.7305 21.9316L72.9492 25.6914L69.1465 21.9316ZM78.5566 45.2637C79.5449 45.2637 80.2682 44.9915 80.7266 44.4473C81.1849 43.903 81.4141 43.0579 81.4141 41.9121C81.4141 40.8379 81.1562 38.8398 80.6406 35.918L86.2051 34.7578L86.7207 38.4961C86.9928 40.3724 87.3509 41.7832 87.7949 42.7285C88.2533 43.6738 88.8691 44.3327 89.6426 44.7051C90.4303 45.0775 91.5332 45.2637 92.9512 45.2637H92.9727V51H92.9512C90.8457 51 89.1341 50.6276 87.8164 49.8828C86.513 49.1237 85.6823 48.0352 85.3242 46.6172C85.0664 48.0065 84.4076 49.0879 83.3477 49.8613C82.2878 50.6204 80.9414 51 79.3086 51C77.7474 51 76.4512 50.6706 75.4199 50.0117C74.3887 49.3385 73.6654 48.3932 73.25 47.1758C72.3477 49.7253 70.3281 51 67.1914 51C63.9115 51 61.8919 49.6393 61.1328 46.918C60.5599 48.1497 59.5788 49.138 58.1895 49.8828C56.8145 50.6276 55.2604 51 53.5273 51H52.625C52.0807 51 51.8086 50.0189 51.8086 48.0566C51.8086 47.054 51.873 46.3379 52.002 45.9082C52.1309 45.4785 52.3385 45.2637 52.625 45.2637H53.5273C55.2461 45.2637 56.5137 44.8841 57.3301 44.125C58.1608 43.3659 58.6621 42.0911 58.834 40.3008L59.2207 35.918L64.957 36.3691L64.5059 41.2891C64.248 43.8672 65.1934 45.1921 67.3418 45.2637C68.3301 45.2923 69.082 45.0202 69.5977 44.4473C70.1276 43.86 70.4427 42.9362 70.543 41.6758L70.9297 37.0566L75.957 37.4219L75.6562 41.5898C75.4701 44.0391 76.4368 45.2637 78.5566 45.2637ZM92.9727 45.2637C93.6029 45.2637 94.1901 45.1491 94.7344 44.9199C95.2786 44.6908 95.737 44.4258 96.1094 44.125C96.4818 43.8099 96.8685 43.3587 97.2695 42.7715C97.6706 42.1842 97.9857 41.6829 98.2148 41.2676C98.444 40.8522 98.7448 40.265 99.1172 39.5059C99.4466 38.8613 99.7044 38.36 99.8906 38.002C100.077 37.6439 100.342 37.1855 100.686 36.627C101.029 36.054 101.337 35.61 101.609 35.2949C101.896 34.9655 102.247 34.6003 102.662 34.1992C103.092 33.7982 103.514 33.4974 103.93 33.2969C104.359 33.082 104.861 32.903 105.434 32.7598C106.007 32.6165 106.608 32.5449 107.238 32.5449C108.842 32.5449 110.296 33.0319 111.6 34.0059C112.903 34.9798 113.898 36.2331 114.586 37.7656C115.273 39.2982 115.617 40.931 115.617 42.6641C115.617 45.2852 114.908 47.3691 113.49 48.916C112.072 50.4486 110.11 51.2148 107.604 51.2148C106.1 51.2148 104.66 50.8926 103.285 50.248C101.91 49.5892 100.793 48.7083 99.9336 47.6055C99.0456 48.7083 98.0501 49.5534 96.9473 50.1406C95.8444 50.7135 94.5195 51 92.9727 51C92.6862 51 92.4785 50.7995 92.3496 50.3984C92.2207 49.9831 92.1562 49.2311 92.1562 48.1426C92.1562 47.054 92.2207 46.3021 92.3496 45.8867C92.4785 45.4714 92.6862 45.2637 92.9727 45.2637ZM102.855 43.2012C104.345 44.7337 105.935 45.5 107.625 45.5C108.398 45.5 109.057 45.2565 109.602 44.7695C110.146 44.2682 110.418 43.5664 110.418 42.6641C110.418 41.4609 110.089 40.4154 109.43 39.5273C108.771 38.6393 108.019 38.1953 107.174 38.1953C106.386 38.1953 105.684 38.5033 105.068 39.1191C104.467 39.735 103.872 40.752 103.285 42.1699L102.855 43.2012ZM162.088 32.7383C162.833 35.5885 163.205 38.0163 163.205 40.0215C163.205 44.0319 161.859 46.8678 159.166 48.5293C156.473 50.1764 151.919 51 145.502 51C142.91 51 140.661 50.8783 138.756 50.6348C136.851 50.377 135.189 49.9831 133.771 49.4531C132.368 48.9232 131.236 48.2285 130.377 47.3691C129.518 46.4954 128.88 45.4642 128.465 44.2754C128.049 43.0723 127.842 41.6543 127.842 40.0215C127.842 38.0163 128.214 35.5885 128.959 32.7383L134.072 33.877C133.557 36.1686 133.299 38.0163 133.299 39.4199C133.299 40.3939 133.421 41.2103 133.664 41.8691C133.922 42.528 134.316 43.0866 134.846 43.5449C135.39 44.0033 136.156 44.3542 137.145 44.5977C138.147 44.8411 139.293 45.013 140.582 45.1133C141.885 45.2135 143.525 45.2637 145.502 45.2637C147.479 45.2637 149.118 45.2135 150.422 45.1133C151.725 45.013 152.871 44.8411 153.859 44.5977C154.862 44.3542 155.628 44.0033 156.158 43.5449C156.688 43.0866 157.082 42.528 157.34 41.8691C157.598 41.2103 157.727 40.3939 157.727 39.4199C157.727 37.9447 157.476 36.097 156.975 33.877L162.088 32.7383ZM145.459 31.9434L149.262 28.1406L153.043 31.9434L149.262 35.7031L145.459 31.9434ZM137.939 31.9434L141.742 28.1406L145.523 31.9434L141.742 35.7031L137.939 31.9434ZM167.566 21.9102L172.916 19.8691C175.781 26.6725 177.421 33.5618 177.836 40.5371L172.271 41.2676C172.085 38.1738 171.577 34.9368 170.746 31.5566C169.915 28.1764 168.855 24.9609 167.566 21.9102ZM185.141 20.3418H190.855V33.4688C190.855 35.8607 190.719 37.9303 190.447 39.6777C190.189 41.4108 189.745 42.9434 189.115 44.2754C188.485 45.5931 187.704 46.6745 186.773 47.5195C185.842 48.3646 184.632 49.0521 183.143 49.582C181.667 50.112 180.02 50.4844 178.201 50.6992C176.396 50.8997 174.241 51 171.734 51H167.072V45.2637H172.121C173.253 45.2637 174.219 45.2565 175.021 45.2422C175.838 45.2135 176.654 45.1634 177.471 45.0918C178.287 45.0059 178.975 44.9056 179.533 44.791C180.092 44.6621 180.643 44.4902 181.188 44.2754C181.746 44.0605 182.197 43.8099 182.541 43.5234C182.885 43.2227 183.221 42.8646 183.551 42.4492C183.88 42.0195 184.131 41.5469 184.303 41.0312C184.475 40.5013 184.632 39.8926 184.775 39.2051C184.919 38.5033 185.012 37.7441 185.055 36.9277C185.112 36.1113 185.141 35.1803 185.141 34.1348V20.3418ZM207.871 45.2207C207.47 40.4368 206.224 38.0449 204.133 38.0449C203.13 38.0449 202.364 38.5104 201.834 39.4414C201.304 40.3724 201.039 41.5111 201.039 42.8574C201.039 43.7311 201.297 44.3542 201.812 44.7266C202.342 45.0846 203.173 45.2637 204.305 45.2637C205.966 45.2637 207.155 45.2493 207.871 45.2207ZM207.162 51H203.596C201.189 51 199.32 50.3555 197.988 49.0664C196.656 47.763 195.99 45.8652 195.99 43.373C195.99 42.3418 196.09 41.3177 196.291 40.3008C196.506 39.2839 196.828 38.3099 197.258 37.3789C197.702 36.4336 198.239 35.6029 198.869 34.8867C199.499 34.1562 200.28 33.5762 201.211 33.1465C202.142 32.7168 203.152 32.502 204.24 32.502C205.458 32.502 206.553 32.7383 207.527 33.2109C208.516 33.6693 209.325 34.2923 209.955 35.0801C210.6 35.8535 211.144 36.806 211.588 37.9375C212.046 39.0547 212.39 40.2077 212.619 41.3965C212.848 42.571 213.006 43.86 213.092 45.2637H214.939V51H212.877C212.361 53.9076 210.843 56.3926 208.322 58.4551C205.801 60.5176 202.278 62.2363 197.752 63.6113L195.346 58.4121C202.035 56.4642 205.973 53.9935 207.162 51ZM220.998 36.0898H226.734V40C226.763 40.8021 226.87 41.3822 227.057 41.7402C227.257 42.0983 227.558 42.4062 227.959 42.6641C229.807 39.3841 231.84 36.8848 234.061 35.166C236.281 33.4329 238.594 32.5664 241 32.5664C243.607 32.5664 245.698 33.4115 247.273 35.1016C248.849 36.7773 249.637 38.89 249.637 41.4395C249.637 42.5996 249.379 43.6595 248.863 44.6191C249.723 45.0488 250.868 45.2637 252.301 45.2637V51C249.422 51 247.316 50.2337 245.984 48.7012C243.678 50.2337 240.284 51 235.801 51C232.908 51 230.423 50.6419 228.346 49.9258C226.283 49.1953 224.779 48.1641 223.834 46.832C223.347 48.1068 222.352 49.1237 220.848 49.8828C219.344 50.6276 217.668 51 215.82 51H214.918C214.632 51 214.424 50.7995 214.295 50.3984C214.166 49.9831 214.102 49.2311 214.102 48.1426C214.102 47.054 214.166 46.3021 214.295 45.8867C214.424 45.4714 214.632 45.2637 214.918 45.2637H215.82C216.938 45.2637 217.833 45.1777 218.506 45.0059C219.179 44.8197 219.702 44.4902 220.074 44.0176C220.447 43.5449 220.69 42.9863 220.805 42.3418C220.934 41.6973 220.998 40.8307 220.998 39.7422V36.0898ZM239.99 38.1953C237.469 38.1953 234.719 40.3223 231.74 44.5762C232.814 45.0345 234.354 45.2637 236.359 45.2637C237.691 45.2637 238.852 45.1562 239.84 44.9414C240.842 44.7122 241.68 44.2969 242.354 43.6953C243.027 43.0938 243.363 42.3203 243.363 41.375C243.363 40.444 243.055 39.6849 242.439 39.0977C241.824 38.4961 241.007 38.1953 239.99 38.1953ZM262.549 30.6113C263.523 30.6113 264.54 30.7904 265.6 31.1484C266.66 31.5065 268.042 32.0651 269.746 32.8242C271.021 33.3828 272.031 33.8197 272.775 34.1348C273.52 34.4355 274.551 34.8008 275.869 35.2305C277.187 35.6602 278.454 35.9967 279.672 36.2402V40.9238L276.385 43.1152C276.986 43.946 277.645 44.5117 278.361 44.8125C279.092 45.1133 280.159 45.2637 281.562 45.2637H282.336V51H281.52C279.342 51 277.523 50.5775 276.062 49.7324C274.602 48.873 273.47 47.4909 272.668 45.5859L270.24 47.2188C268.249 48.5508 266.187 49.5176 264.053 50.1191C261.933 50.7064 259.584 51 257.006 51H252.301C252.014 51 251.807 50.7995 251.678 50.3984C251.549 49.9831 251.484 49.2311 251.484 48.1426C251.484 47.054 251.549 46.3021 251.678 45.8867C251.807 45.4714 252.014 45.2637 252.301 45.2637H258.059C260.007 45.2637 261.718 45.0846 263.193 44.7266C264.683 44.3542 266.194 43.7025 267.727 42.7715L272.926 39.5488C271.236 39.2051 269.23 38.5319 266.91 37.5293C266.237 37.2285 265.729 37.0137 265.385 36.8848C265.041 36.7415 264.618 36.6055 264.117 36.4766C263.63 36.3477 263.186 36.2832 262.785 36.2832C260.938 36.2832 259.734 37.5866 259.176 40.1934L259.004 41.0098L254.492 40.1934L254.664 39.1836C255.18 36.3906 256.053 34.2637 257.285 32.8027C258.531 31.3418 260.286 30.6113 262.549 30.6113ZM282.336 45.2637C282.966 45.2637 283.553 45.1491 284.098 44.9199C284.642 44.6908 285.1 44.4258 285.473 44.125C285.845 43.8099 286.232 43.3587 286.633 42.7715C287.034 42.1842 287.349 41.6829 287.578 41.2676C287.807 40.8522 288.108 40.265 288.48 39.5059C288.81 38.8613 289.068 38.36 289.254 38.002C289.44 37.6439 289.705 37.1855 290.049 36.627C290.393 36.054 290.701 35.61 290.973 35.2949C291.259 34.9655 291.61 34.6003 292.025 34.1992C292.455 33.7982 292.878 33.4974 293.293 33.2969C293.723 33.082 294.224 32.903 294.797 32.7598C295.37 32.6165 295.971 32.5449 296.602 32.5449C298.206 32.5449 299.66 33.0319 300.963 34.0059C302.266 34.9798 303.262 36.2331 303.949 37.7656C304.637 39.2982 304.98 40.931 304.98 42.6641C304.98 45.2852 304.271 47.3691 302.854 48.916C301.436 50.4486 299.473 51.2148 296.967 51.2148C295.463 51.2148 294.023 50.8926 292.648 50.248C291.273 49.5892 290.156 48.7083 289.297 47.6055C288.409 48.7083 287.413 49.5534 286.311 50.1406C285.208 50.7135 283.883 51 282.336 51C282.049 51 281.842 50.7995 281.713 50.3984C281.584 49.9831 281.52 49.2311 281.52 48.1426C281.52 47.054 281.584 46.3021 281.713 45.8867C281.842 45.4714 282.049 45.2637 282.336 45.2637ZM292.219 43.2012C293.708 44.7337 295.298 45.5 296.988 45.5C297.762 45.5 298.421 45.2565 298.965 44.7695C299.509 44.2682 299.781 43.5664 299.781 42.6641C299.781 41.4609 299.452 40.4154 298.793 39.5273C298.134 38.6393 297.382 38.1953 296.537 38.1953C295.749 38.1953 295.048 38.5033 294.432 39.1191C293.83 39.735 293.236 40.752 292.648 42.1699L292.219 43.2012Z" fill="#191627"/>
<path d="M117.053 22.08C124.132 9.81652 147.447 10.0087 169.264 22.454C150.139 13.4288 130.992 14.2326 124.786 24.9813C117.968 36.7928 129.36 56.1378 150.231 68.1893C158.707 73.0839 167.443 76.0229 175.287 76.996C165.856 76.8007 154.661 73.5742 143.858 67.3368C121.934 54.6765 109.932 34.4145 117.053 22.08Z" fill="#CAACF2"/>
</svg>
