<svg width="118" height="64" viewBox="0 0 118 64" fill="none" xmlns="http://www.w3.org/2000/svg">
<path d="M2.7207 16.3096H7.16992V32.0312C7.16992 33.3483 7.44108 34.2669 7.9834 34.7871C8.53678 35.3073 9.55501 35.5674 11.0381 35.5674V40C8.37077 40 6.31771 39.3359 4.87891 38.0078C3.4401 36.6686 2.7207 34.7041 2.7207 32.1143V16.3096ZM11.0381 35.5674C11.5251 35.5674 11.9788 35.4788 12.3994 35.3018C12.82 35.1247 13.1742 34.9199 13.4619 34.6875C13.7497 34.444 14.0485 34.0954 14.3584 33.6416C14.6683 33.1878 14.9118 32.8005 15.0889 32.4795C15.266 32.1585 15.4984 31.7048 15.7861 31.1182C16.0407 30.6201 16.2399 30.2327 16.3838 29.9561C16.5277 29.6794 16.7324 29.3252 16.998 28.8936C17.2637 28.4508 17.5016 28.1077 17.7119 27.8643C17.9333 27.6097 18.2044 27.3275 18.5254 27.0176C18.8574 26.7077 19.1839 26.4753 19.5049 26.3203C19.8369 26.1543 20.2243 26.016 20.667 25.9053C21.1097 25.7946 21.5745 25.7393 22.0615 25.7393C23.3011 25.7393 24.4245 26.1156 25.4316 26.8682C26.4388 27.6208 27.208 28.5892 27.7393 29.7734C28.2705 30.9577 28.5361 32.2194 28.5361 33.5586C28.5361 35.584 27.9883 37.1943 26.8926 38.3896C25.7969 39.5739 24.2806 40.166 22.3438 40.166C21.1816 40.166 20.0693 39.917 19.0068 39.4189C17.9443 38.9098 17.0811 38.2292 16.417 37.377C15.7308 38.2292 14.9616 38.8822 14.1094 39.3359C13.2572 39.7786 12.2334 40 11.0381 40C10.8167 40 10.6562 39.8451 10.5566 39.5352C10.457 39.2142 10.4072 38.6331 10.4072 37.792C10.4072 36.9508 10.457 36.3698 10.5566 36.0488C10.6562 35.7279 10.8167 35.5674 11.0381 35.5674ZM18.6748 33.9736C19.8258 35.1579 21.0544 35.75 22.3604 35.75C22.958 35.75 23.4671 35.5618 23.8877 35.1855C24.3083 34.7982 24.5186 34.2559 24.5186 33.5586C24.5186 32.6289 24.264 31.821 23.7549 31.1348C23.2458 30.4486 22.6647 30.1055 22.0117 30.1055C21.403 30.1055 20.8607 30.3434 20.3848 30.8193C19.9199 31.2952 19.4606 32.0811 19.0068 33.1768L18.6748 33.9736ZM63.416 9.43652L63.9307 11.7109C59.3929 12.7845 55.1484 14.5387 51.1973 16.9736L49.9854 14.9814C54.2354 12.3916 58.7122 10.5433 63.416 9.43652ZM38.7295 26.1377L42.7803 27.0508C42.3929 28.7884 42.1992 30.1829 42.1992 31.2344C42.1992 32.8724 42.7637 34.0068 43.8926 34.6377C45.0215 35.2575 47.0524 35.5674 49.9854 35.5674C55.7406 35.5674 58.6182 34.5713 58.6182 32.5791C58.6182 31.6162 57.9375 30.4154 56.5762 28.9766C55.2259 27.5267 53.2614 25.9163 50.6826 24.1455V20.4434C55.5524 17.444 60.4997 15.3301 65.5244 14.1016L66.4541 18.4346C62.5693 19.486 59.0332 20.8307 55.8457 22.4688V22.6348C58.3802 24.7598 60.2119 26.6247 61.3408 28.2295C62.4808 29.8343 63.0508 31.3893 63.0508 32.8945C63.0508 35.1855 61.9219 36.9453 59.6641 38.1738C57.4062 39.3913 54.1579 40 49.9189 40C45.7243 40 42.6862 39.3415 40.8047 38.0244C38.9232 36.6963 37.9824 34.5602 37.9824 31.6162C37.9824 30.0114 38.2314 28.1852 38.7295 26.1377ZM69.4424 17.5215L73.5928 15.9443C75.7178 20.9912 76.9463 26.2152 77.2783 31.6162L72.9951 32.1641C72.6742 27.2832 71.4899 22.4023 69.4424 17.5215ZM82.9062 16.3096H87.3389V32.0312C87.3389 33.3704 87.6156 34.2946 88.1689 34.8037C88.7334 35.3128 89.7461 35.5674 91.207 35.5674H91.2236V40H91.207C87.0234 40 84.6273 38.2845 84.0186 34.8535L84.002 34.3887C82.6517 36.3366 80.7757 37.7588 78.374 38.6553C75.9834 39.5518 72.8457 40 68.9609 40V35.5674C71.9492 35.5674 74.373 35.3516 76.2324 34.9199C78.0918 34.4883 79.5472 33.8021 80.5986 32.8613C81.6611 31.9095 82.4303 30.6201 82.9062 28.9932V16.3096ZM98.9102 25.623C99.6074 28.5007 99.9561 30.8249 99.9561 32.5957C99.9561 34.9421 99.3086 36.7627 98.0137 38.0576C96.7188 39.3525 94.6878 40 91.9209 40H91.2236C91.0023 40 90.8418 39.8451 90.7422 39.5352C90.6426 39.2142 90.5928 38.6331 90.5928 37.792C90.5928 36.9508 90.6426 36.3698 90.7422 36.0488C90.8418 35.7279 91.0023 35.5674 91.2236 35.5674H91.9209C93.2158 35.5674 94.1566 35.2852 94.7432 34.7207C95.3298 34.1562 95.623 33.2874 95.623 32.1143C95.623 31.0628 95.3298 29.2809 94.7432 26.7686L98.9102 25.623ZM90.6426 45.7607L93.5811 42.8223L96.5029 45.7607L93.5811 48.666L90.6426 45.7607ZM111.544 39.8506C110.415 40.0055 109.502 40.083 108.805 40.083C106.945 40.083 105.501 39.585 104.472 38.5889C103.442 37.5817 102.928 36.1152 102.928 34.1895C102.928 33.3815 103.005 32.5846 103.16 31.7988C103.326 31.013 103.575 30.2549 103.907 29.5244C104.25 28.7939 104.665 28.152 105.152 27.5986C105.639 27.0342 106.243 26.5859 106.962 26.2539C107.681 25.9108 108.462 25.7393 109.303 25.7393C110.199 25.7393 111.007 25.8942 111.727 26.2041C112.446 26.5029 113.055 26.9346 113.553 27.499C114.051 28.0635 114.477 28.7109 114.831 29.4414C115.196 30.1719 115.479 31.002 115.678 31.9316C115.877 32.8613 116.021 33.7965 116.109 34.7373C116.198 35.6781 116.242 36.6908 116.242 37.7754C116.242 40.6641 115.252 43.0713 113.271 44.9971C111.3 46.9339 108.307 48.5221 104.289 49.7617L102.43 45.7441C104.953 45.0247 106.995 44.1615 108.556 43.1543C110.127 42.1582 111.123 41.057 111.544 39.8506ZM112.092 35.3516C111.793 31.7767 110.836 29.9893 109.22 29.9893C108.445 29.9893 107.853 30.36 107.443 31.1016C107.034 31.8431 106.829 32.7396 106.829 33.791C106.829 34.4661 107.028 34.9476 107.427 35.2354C107.825 35.512 108.467 35.6504 109.353 35.6504C110.227 35.6504 111.14 35.5508 112.092 35.3516Z" fill="#59518C"/>
<path d="M25.0524 9.07974C32.1315 -3.18279 55.4439 -2.99118 77.2594 9.45181C58.1358 0.428541 38.9904 1.23381 32.7858 11.9821C25.9677 23.7935 37.3594 43.1377 58.2301 55.1891C66.7083 60.0847 75.4466 63.0233 83.2916 63.9958C73.8598 63.8015 62.6619 60.5761 51.858 54.3376C29.9329 41.6773 17.932 21.4144 25.0524 9.07974Z" fill="#CAACF2"/>
</svg>
