<svg width="286" height="77" viewBox="0 0 286 77" fill="none" xmlns="http://www.w3.org/2000/svg">
<path d="M14.0723 42.4492L17.875 38.6465L21.6562 42.4492L17.875 46.209L14.0723 42.4492ZM25.0723 37.5293L30.4863 34.9727C31.5892 37.6367 32.3841 39.8926 32.8711 41.7402C33.3724 43.5879 33.623 45.679 33.623 48.0137C33.623 50.291 33.2292 52.332 32.4414 54.1367C31.668 55.9414 30.5794 57.4238 29.1758 58.584C27.7721 59.7441 26.125 60.625 24.2344 61.2266C22.3438 61.8281 20.2741 62.1289 18.0254 62.1289C12.8691 62.1289 8.99479 60.9329 6.40234 58.541C3.8099 56.1634 2.51367 52.7259 2.51367 48.2285C2.51367 44.6335 3.22982 40.623 4.66211 36.1973L9.92578 37.8945C8.73698 42.1628 8.14258 45.4284 8.14258 47.6914C8.14258 50.513 8.93034 52.6686 10.5059 54.1582C12.0957 55.6478 14.6094 56.3926 18.0469 56.3926C21.3698 56.3926 23.8333 55.6764 25.4375 54.2441C27.056 52.8118 27.8652 50.8066 27.8652 48.2285C27.8652 45.4069 26.9342 41.8405 25.0723 37.5293ZM38.0918 20.3418H43.8496V40.6875C43.8496 42.3919 44.2005 43.5807 44.9023 44.2539C45.6185 44.9271 46.9362 45.2637 48.8555 45.2637V51C45.4036 51 42.7467 50.1406 40.8848 48.4219C39.0228 46.6888 38.0918 44.1465 38.0918 40.7949V20.3418ZM58.8027 32.3945C59.7051 36.1185 60.1562 39.1263 60.1562 41.418C60.1562 44.4544 59.3184 46.8105 57.6426 48.4863C55.9668 50.1621 53.3385 51 49.7578 51H48.8555C48.569 51 48.3613 50.7995 48.2324 50.3984C48.1035 49.9831 48.0391 49.2311 48.0391 48.1426C48.0391 47.054 48.1035 46.3021 48.2324 45.8867C48.3613 45.4714 48.569 45.2637 48.8555 45.2637H49.7578C51.4336 45.2637 52.651 44.8984 53.4102 44.168C54.1693 43.4375 54.5488 42.3132 54.5488 40.7949C54.5488 39.4342 54.1693 37.1283 53.4102 33.877L58.8027 32.3945ZM51.4551 58.4551L55.2578 54.6523L59.0391 58.4551L55.2578 62.2148L51.4551 58.4551ZM43.9355 58.4551L47.7383 54.6523L51.5195 58.4551L47.7383 62.2148L43.9355 58.4551ZM69.2227 37.0566L74.6797 35.209L76.0547 39.8496C76.3984 41.0384 76.7207 41.9622 77.0215 42.6211C77.3366 43.2799 77.7233 43.8242 78.1816 44.2539C78.6543 44.6693 79.1842 44.9414 79.7715 45.0703C80.3587 45.1992 81.1393 45.2637 82.1133 45.2637H82.1562V51H82.1133C79.7643 51 78.0026 50.3698 76.8281 49.1094C76.6133 52.5182 75.4245 55.3757 73.2617 57.6816C71.099 59.9876 67.7402 61.9857 63.1855 63.6758L60.7148 58.5195C64.5964 57.1159 67.3464 55.6048 68.9648 53.9863C70.5977 52.3822 71.4141 50.2982 71.4141 47.7344C71.4141 45.0846 70.6836 41.5254 69.2227 37.0566ZM93.9727 39.7422C93.9727 40.8451 94.0299 41.7188 94.1445 42.3633C94.2591 42.9935 94.4883 43.5449 94.832 44.0176C95.1901 44.4902 95.6914 44.8197 96.3359 45.0059C96.9805 45.1777 97.8398 45.2637 98.9141 45.2637H99.9883V51H98.8496C97.0163 51 95.3835 50.6276 93.9512 49.8828C92.5189 49.138 91.5592 48.1211 91.0723 46.832C90.5853 48.1068 89.5898 49.1237 88.0859 49.8828C86.582 50.6276 84.9062 51 83.0586 51H82.1562C81.8698 51 81.6621 50.7995 81.5332 50.3984C81.4043 49.9831 81.3398 49.2311 81.3398 48.1426C81.3398 47.054 81.4043 46.3021 81.5332 45.8867C81.6621 45.4714 81.8698 45.2637 82.1562 45.2637H83.0586C84.1758 45.2637 85.071 45.1777 85.7441 45.0059C86.4173 44.8197 86.9401 44.4902 87.3125 44.0176C87.6849 43.5449 87.9284 42.9863 88.043 42.3418C88.1719 41.6973 88.2363 40.8307 88.2363 39.7422V36.0898H93.9727V39.7422ZM88.9453 28.4629L92.748 24.6602L96.5293 28.4629L92.748 32.2227L88.9453 28.4629ZM81.4258 28.4629L85.2285 24.6602L89.0098 28.4629L85.2285 32.2227L81.4258 28.4629ZM112.75 28.8926L116.553 25.0898L120.334 28.8926L116.553 32.6523L112.75 28.8926ZM120.27 28.8926L124.072 25.0898L127.854 28.8926L124.072 32.6523L120.27 28.8926ZM116.51 21.9316L120.312 18.1289L124.094 21.9316L120.312 25.6914L116.51 21.9316ZM125.92 45.2637C126.908 45.2637 127.632 44.9915 128.09 44.4473C128.548 43.903 128.777 43.0579 128.777 41.9121C128.777 40.8379 128.52 38.8398 128.004 35.918L133.568 34.7578L134.084 38.4961C134.356 40.3724 134.714 41.7832 135.158 42.7285C135.617 43.6738 136.232 44.3327 137.006 44.7051C137.794 45.0775 138.896 45.2637 140.314 45.2637H140.336V51H140.314C138.209 51 136.497 50.6276 135.18 49.8828C133.876 49.1237 133.046 48.0352 132.688 46.6172C132.43 48.0065 131.771 49.0879 130.711 49.8613C129.651 50.6204 128.305 51 126.672 51C125.111 51 123.814 50.6706 122.783 50.0117C121.752 49.3385 121.029 48.3932 120.613 47.1758C119.711 49.7253 117.691 51 114.555 51C111.275 51 109.255 49.6393 108.496 46.918C107.923 48.1497 106.942 49.138 105.553 49.8828C104.178 50.6276 102.624 51 100.891 51H99.9883C99.444 51 99.1719 50.0189 99.1719 48.0566C99.1719 47.054 99.2363 46.3379 99.3652 45.9082C99.4941 45.4785 99.7018 45.2637 99.9883 45.2637H100.891C102.609 45.2637 103.877 44.8841 104.693 44.125C105.524 43.3659 106.025 42.0911 106.197 40.3008L106.584 35.918L112.32 36.3691L111.869 41.2891C111.611 43.8672 112.557 45.1921 114.705 45.2637C115.693 45.2923 116.445 45.0202 116.961 44.4473C117.491 43.86 117.806 42.9362 117.906 41.6758L118.293 37.0566L123.32 37.4219L123.02 41.5898C122.833 44.0391 123.8 45.2637 125.92 45.2637ZM140.336 45.2637C140.966 45.2637 141.553 45.1491 142.098 44.9199C142.642 44.6908 143.1 44.4258 143.473 44.125C143.845 43.8099 144.232 43.3587 144.633 42.7715C145.034 42.1842 145.349 41.6829 145.578 41.2676C145.807 40.8522 146.108 40.265 146.48 39.5059C146.81 38.8613 147.068 38.36 147.254 38.002C147.44 37.6439 147.705 37.1855 148.049 36.627C148.393 36.054 148.701 35.61 148.973 35.2949C149.259 34.9655 149.61 34.6003 150.025 34.1992C150.455 33.7982 150.878 33.4974 151.293 33.2969C151.723 33.082 152.224 32.903 152.797 32.7598C153.37 32.6165 153.971 32.5449 154.602 32.5449C156.206 32.5449 157.66 33.0319 158.963 34.0059C160.266 34.9798 161.262 36.2331 161.949 37.7656C162.637 39.2982 162.98 40.931 162.98 42.6641C162.98 45.2852 162.271 47.3691 160.854 48.916C159.436 50.4486 157.473 51.2148 154.967 51.2148C153.463 51.2148 152.023 50.8926 150.648 50.248C149.273 49.5892 148.156 48.7083 147.297 47.6055C146.409 48.7083 145.413 49.5534 144.311 50.1406C143.208 50.7135 141.883 51 140.336 51C140.049 51 139.842 50.7995 139.713 50.3984C139.584 49.9831 139.52 49.2311 139.52 48.1426C139.52 47.054 139.584 46.3021 139.713 45.8867C139.842 45.4714 140.049 45.2637 140.336 45.2637ZM150.219 43.2012C151.708 44.7337 153.298 45.5 154.988 45.5C155.762 45.5 156.421 45.2565 156.965 44.7695C157.509 44.2682 157.781 43.5664 157.781 42.6641C157.781 41.4609 157.452 40.4154 156.793 39.5273C156.134 38.6393 155.382 38.1953 154.537 38.1953C153.749 38.1953 153.048 38.5033 152.432 39.1191C151.83 39.735 151.236 40.752 150.648 42.1699L150.219 43.2012ZM209.451 32.7383C210.196 35.5885 210.568 38.0163 210.568 40.0215C210.568 44.0319 209.222 46.8678 206.529 48.5293C203.837 50.1764 199.282 51 192.865 51C190.273 51 188.024 50.8783 186.119 50.6348C184.214 50.377 182.553 49.9831 181.135 49.4531C179.731 48.9232 178.6 48.2285 177.74 47.3691C176.881 46.4954 176.243 45.4642 175.828 44.2754C175.413 43.0723 175.205 41.6543 175.205 40.0215C175.205 38.0163 175.577 35.5885 176.322 32.7383L181.436 33.877C180.92 36.1686 180.662 38.0163 180.662 39.4199C180.662 40.3939 180.784 41.2103 181.027 41.8691C181.285 42.528 181.679 43.0866 182.209 43.5449C182.753 44.0033 183.52 44.3542 184.508 44.5977C185.51 44.8411 186.656 45.013 187.945 45.1133C189.249 45.2135 190.889 45.2637 192.865 45.2637C194.842 45.2637 196.482 45.2135 197.785 45.1133C199.089 45.013 200.234 44.8411 201.223 44.5977C202.225 44.3542 202.992 44.0033 203.521 43.5449C204.051 43.0866 204.445 42.528 204.703 41.8691C204.961 41.2103 205.09 40.3939 205.09 39.4199C205.09 37.9447 204.839 36.097 204.338 33.877L209.451 32.7383ZM192.822 31.9434L196.625 28.1406L200.406 31.9434L196.625 35.7031L192.822 31.9434ZM185.303 31.9434L189.105 28.1406L192.887 31.9434L189.105 35.7031L185.303 31.9434ZM220.967 51H215.23V20.3418H220.967V51ZM229.324 37.0566L234.781 35.209L236.156 39.8496C236.5 41.0384 236.822 41.9622 237.123 42.6211C237.438 43.2799 237.825 43.8242 238.283 44.2539C238.756 44.6693 239.286 44.9414 239.873 45.0703C240.46 45.1992 241.241 45.2637 242.215 45.2637H242.258V51H242.215C239.866 51 238.104 50.3698 236.93 49.1094C236.715 52.5182 235.526 55.3757 233.363 57.6816C231.201 59.9876 227.842 61.9857 223.287 63.6758L220.816 58.5195C224.698 57.1159 227.448 55.6048 229.066 53.9863C230.699 52.3822 231.516 50.2982 231.516 47.7344C231.516 45.0846 230.785 41.5254 229.324 37.0566ZM257.748 24.4238L261.551 20.6211L265.332 24.4238L261.551 28.1836L257.748 24.4238ZM242.301 51C242.014 51 241.807 50.7995 241.678 50.3984C241.535 49.9831 241.463 49.2311 241.463 48.1426C241.463 47.054 241.535 46.3021 241.678 45.8867C241.807 45.4714 242.014 45.2637 242.301 45.2637H245.008C245.079 45.1634 245.194 44.9987 245.352 44.7695C245.509 44.5404 245.624 44.3613 245.695 44.2324V20.3418H251.432V33.7051C251.432 35.8105 251.274 37.6152 250.959 39.1191C254.239 34.7507 257.784 32.5664 261.594 32.5664C264.186 32.5664 266.27 33.4186 267.846 35.123C269.421 36.8132 270.209 38.9186 270.209 41.4395C270.209 42.5137 270.016 43.5091 269.629 44.4258C270.517 44.9844 271.663 45.2637 273.066 45.2637H273.109V51H273.066C270.431 51 268.404 50.1263 266.986 48.3789C264.766 50.1263 261.035 51 255.793 51H242.301ZM251.732 45.2637H257.039C258.099 45.2637 259.023 45.2135 259.811 45.1133C260.598 44.9987 261.314 44.8125 261.959 44.5547C262.604 44.2969 263.09 43.9245 263.42 43.4375C263.764 42.9362 263.936 42.3203 263.936 41.5898C263.936 40.5729 263.628 39.7565 263.012 39.1406C262.41 38.5104 261.594 38.1953 260.562 38.1953C259.331 38.1953 257.963 38.7611 256.459 39.8926C254.955 41.0098 253.38 42.8001 251.732 45.2637ZM283.057 32.3945C283.959 36.1185 284.41 39.1263 284.41 41.418C284.41 44.4544 283.572 46.8105 281.896 48.4863C280.221 50.1621 277.592 51 274.012 51H273.109C272.823 51 272.615 50.7995 272.486 50.3984C272.357 49.9831 272.293 49.2311 272.293 48.1426C272.293 47.054 272.357 46.3021 272.486 45.8867C272.615 45.4714 272.823 45.2637 273.109 45.2637H274.012C275.688 45.2637 276.905 44.8984 277.664 44.168C278.423 43.4375 278.803 42.3132 278.803 40.7949C278.803 39.4342 278.423 37.1283 277.664 33.877L283.057 32.3945ZM274.441 25.584L278.244 21.7812L282.025 25.584L278.244 29.3438L274.441 25.584Z" fill="#191627"/>
<path d="M19.0517 22.0802C26.1306 9.81748 49.4432 10.0086 71.2587 22.4513C52.1356 13.4285 32.9909 14.2338 26.7861 24.9815C19.9677 36.793 31.3595 56.138 52.2304 68.1896C60.7066 73.0839 69.4425 76.0231 77.2861 76.9962C67.8554 76.8008 56.6602 73.5743 45.8583 67.337C23.9333 54.6768 11.9315 34.4148 19.0517 22.0802Z" fill="#CAACF2"/>
</svg>
